<svg width="173" height="56" viewBox="0 0 173 56" fill="none" xmlns="http://www.w3.org/2000/svg">
<g clip-path="url(#clip0_28_210)">
<path d="M45.3597 49.0566V53.5688H44.5495C44.5495 53.5688 42.8535 50.8491 42.723 50.6225C42.7299 50.9247 42.7368 53.5688 42.7368 53.5688H41.8853V49.0566H42.7436C42.7436 49.0566 44.3984 51.6939 44.522 51.9136C44.5083 51.6115 44.5083 49.0566 44.5083 49.0566H45.3597Z" fill="#65318E"/>
<path d="M50.9696 49.0566V51.6595C50.9696 52.9163 50.331 53.6375 49.2187 53.6375C48.6007 53.6375 47.557 53.3834 47.557 51.687V49.0566H48.4428V51.7007C48.4428 52.2227 48.5801 52.8545 49.2393 52.8545C49.7955 52.8545 50.0839 52.4631 50.0839 51.7007V49.0566H50.9696Z" fill="#65318E"/>
<path d="M56.2018 53.3148C56.1194 53.1706 56.0164 52.731 55.8997 52.216C55.8173 51.8588 55.6731 51.591 55.4671 51.4193C55.8516 51.1858 56.0714 50.8012 56.0714 50.3342C56.0714 49.9565 55.934 49.6337 55.6869 49.4139C55.3985 49.146 54.9865 49.0293 54.3685 49.0293C53.9771 49.0293 53.5789 49.0636 53.3042 49.1186L53.1669 49.146V53.5689H54.0458V51.7627H54.3754C54.7324 51.7764 54.9315 51.8794 55.0483 52.4426C55.1925 53.0676 55.2749 53.3629 55.3435 53.4865L55.3916 53.5689H56.3392L56.2018 53.3148ZM54.4234 51.0141H54.0458V49.8054C54.135 49.7916 54.2518 49.7848 54.4028 49.7848C54.9247 49.7916 55.1925 49.9977 55.1925 50.396C55.1925 50.7737 54.8972 51.0141 54.4234 51.0141Z" fill="#65318E"/>
<path d="M61.1045 49.0566V49.8602H59.8273V53.5688H58.9415V49.8602H57.6781V49.0566H61.1045Z" fill="#65318E"/>
<path d="M66.2406 49.0566V51.6595C66.2406 52.9163 65.602 53.6375 64.4897 53.6375C63.8648 53.6375 62.8211 53.3834 62.8211 51.687V49.0566H63.7137V51.7007C63.7137 52.2227 63.8511 52.8545 64.5103 52.8545C65.0664 52.8545 65.3548 52.4631 65.3548 51.7007V49.0566H66.2406Z" fill="#65318E"/>
<path d="M71.4728 53.3148C71.3904 53.1706 71.2943 52.7516 71.1638 52.216C71.0814 51.8588 70.9441 51.591 70.7381 51.4193C71.1226 51.1858 71.3424 50.8012 71.3424 50.3342C71.3424 49.9565 71.205 49.6337 70.9578 49.4139C70.6626 49.146 70.2575 49.0293 69.6395 49.0293C69.2481 49.0293 68.8499 49.0636 68.5752 49.1186L68.4379 49.146V53.5689H69.3168V51.7627H69.6464C70.0034 51.7764 70.1957 51.8794 70.3193 52.4426C70.4635 53.0676 70.5459 53.3629 70.6145 53.4865L70.6626 53.5689H71.6102L71.4728 53.3148ZM69.6944 51.0141H69.3168V49.8054C69.406 49.7916 69.5228 49.7848 69.6738 49.7848C70.1957 49.7916 70.4635 49.9977 70.4635 50.396C70.4635 50.7737 70.1682 51.0141 69.6944 51.0141Z" fill="#65318E"/>
<path d="M74.2468 49.0566H73.3679V53.5688H74.2468V49.0566Z" fill="#65318E"/>
<path d="M79.9185 49.0566V53.5688H79.1083C79.1083 53.5688 77.4192 50.8491 77.2887 50.6225C77.2887 50.9178 77.3024 53.5688 77.3024 53.5688H76.451V49.0566H77.3024C77.3024 49.0566 78.9641 51.6939 79.0877 51.9136C79.074 51.6115 79.074 49.0566 79.074 49.0566H79.9185Z" fill="#65318E"/>
<path d="M85.6383 51.0348V53.3355L85.5216 53.3767C85.2194 53.4866 84.7388 53.6102 84.1826 53.6102C83.4822 53.6102 82.9329 53.4179 82.5072 53.0127C82.109 52.6281 81.8755 52.0168 81.8755 51.3369C81.8824 49.9496 82.8574 49.0156 84.3062 49.0156C84.8075 49.0156 85.2057 49.1255 85.4186 49.2217L85.549 49.2903L85.3224 50.0527L85.1439 49.9771C84.9723 49.9016 84.7182 49.8123 84.2925 49.8123C83.3518 49.8123 82.7887 50.3754 82.7887 51.3163C82.7887 52.2572 83.3243 52.8272 84.2238 52.8272C84.471 52.8272 84.6564 52.7998 84.7663 52.7654V51.8108H83.9217V51.0348H85.6383Z" fill="#65318E"/>
<path d="M95.6084 51.0348V53.3355L95.4985 53.3767C95.1964 53.4866 94.7157 53.6102 94.1595 53.6102C93.4523 53.6102 92.903 53.4179 92.4841 53.0127C92.079 52.6281 91.8524 52.0168 91.8524 51.3369C91.8593 49.9496 92.8343 49.0156 94.2763 49.0156C94.7775 49.0156 95.1826 49.1255 95.3886 49.2217L95.5191 49.2903L95.2925 50.0527L95.114 49.9771C94.9423 49.9016 94.6883 49.8123 94.2625 49.8123C93.3356 49.8123 92.7588 50.3892 92.7588 51.3163C92.7588 52.2435 93.3012 52.8272 94.1939 52.8272C94.4754 52.8272 94.6471 52.7929 94.7432 52.7654V51.8108H93.8986V51.0348H95.6084Z" fill="#65318E"/>
<path d="M100.381 52.7721V53.5688H97.6957V49.0566H100.291V49.8533H98.5746V50.8285H100.195V51.6183H98.5746V52.7721H100.381Z" fill="#65318E"/>
<path d="M105.812 49.0566V53.5688H105.002C105.002 53.5688 103.313 50.8491 103.182 50.6225C103.189 50.9247 103.196 53.5688 103.196 53.5688H102.344V49.0566H103.196C103.196 49.0566 104.857 51.6939 104.981 51.9136C104.967 51.6115 104.96 49.0566 104.96 49.0566H105.812Z" fill="#65318E"/>
<path d="M109.602 51.3506H107.734V52.0992H109.602V51.3506Z" fill="#65318E"/>
<path d="M114.992 49.0566V53.5688H114.182C114.182 53.5688 112.486 50.8491 112.356 50.6225C112.369 50.9247 112.369 53.5688 112.369 53.5688H111.518V49.0566H112.376C112.376 49.0566 114.038 51.6939 114.155 51.9136C114.141 51.6115 114.141 49.0566 114.141 49.0566H114.992Z" fill="#65318E"/>
<path d="M119.881 52.7721V53.5688H117.196V49.0566H119.785V49.8533H118.075V50.8285H119.696V51.6183H118.075V52.7721H119.881Z" fill="#65318E"/>
<path d="M125.223 53.5688H124.193C124.193 53.5688 123.369 52.1678 123.28 52.0098C123.198 52.1609 122.415 53.5688 122.415 53.5688H121.392L122.772 51.2887L121.447 49.0566H122.47C122.47 49.0566 123.239 50.4233 123.308 50.5538C123.383 50.4165 124.166 49.0566 124.166 49.0566H125.196L123.823 51.2612L125.223 53.5688Z" fill="#65318E"/>
<path d="M129.975 49.0566V49.8602H128.705V53.5688H127.819V49.8602H126.549V49.0566H129.975Z" fill="#65318E"/>
<path d="M42.2424 40.046C41.4733 41.9415 39.7293 43.2464 37.6831 43.4456C35.218 43.6791 29.9103 44.2491 29.7111 44.2491C28.2005 44.2491 26.7242 43.6241 25.6874 42.5116C24.8497 41.6256 24.0188 40.7397 23.1743 39.8537C23.4009 42.7039 21.3203 45.2862 18.4433 45.6776C16.3971 45.9523 12.2566 46.5155 11.5151 46.5979C8.88521 46.8932 6.53002 44.6818 6.11117 42.0239L1.80591 14.4635C1.58618 13.0968 1.93637 11.7095 2.78094 10.5626C3.68731 9.32638 5.10867 8.48164 6.67422 8.255C8.86461 7.92535 11.0619 7.6163 13.2591 7.32098C14.8247 7.10808 16.4246 7.52702 17.6331 8.46104C18.409 9.05167 18.9926 9.82086 19.3359 10.6862C20.0363 9.78652 20.7367 8.88684 21.4439 7.98716C22.3915 6.78529 23.8403 5.9955 25.4196 5.81694C28.07 5.51475 30.748 5.23317 33.3915 4.97906C35.6918 4.75243 37.8685 5.83067 38.9534 7.73305C40.052 9.64916 39.8117 11.998 38.3491 13.7218C35.733 16.7917 33.1306 19.9234 30.5969 23.0482C34.1949 26.7843 37.7792 30.6234 41.2467 34.4488C42.6338 35.9803 43.0183 38.123 42.2424 40.046Z" fill="#65318E"/>
<path d="M49.2187 42.4566C47.1656 42.6077 43.2105 42.9305 42.5926 42.9717C39.8185 43.1709 37.4221 40.8564 37.1543 38.0681L34.5176 10.2947C34.3872 8.91432 34.8129 7.55449 35.7261 6.45564C36.708 5.28125 38.1706 4.52579 39.7499 4.38844C41.954 4.20301 44.1581 4.02445 46.3622 3.85962C47.9347 3.74973 49.5071 4.25108 50.6606 5.26065C51.7318 6.19467 52.3772 7.47208 52.4665 8.85937L54.2793 36.6945C54.4715 39.6546 52.1987 42.2369 49.2187 42.4566Z" fill="#65318E"/>
<path d="M85.7688 21.6269C85.7756 24.3603 85.2675 26.9494 84.2513 29.3325C83.235 31.7088 81.7794 33.8172 79.9254 35.6097C78.1127 37.3541 75.9497 38.7552 73.4984 39.7853C71.0814 40.8086 68.3967 41.3924 65.5334 41.516C61.9216 41.6671 54.4509 42.0929 54.2655 42.0998C51.4365 42.2371 49.0196 39.909 48.8067 37.0726L46.8086 9.25112C46.7056 7.86382 47.1656 6.51087 48.1063 5.43262C49.1088 4.27883 50.592 3.56458 52.1713 3.46157C56.0714 3.21433 60.0265 3.00829 63.9129 2.84346C66.9547 2.71984 69.8317 3.09071 72.4822 3.96978C75.1532 4.84199 77.5084 6.15374 79.4928 7.85695C81.491 9.58077 83.0565 11.6617 84.1345 14.0311C85.2057 16.3524 85.755 18.9072 85.7688 21.6269Z" fill="#65318E"/>
<path d="M114.779 8.51617L114.546 13.1657C114.477 14.4637 113.928 15.6999 112.987 16.6339C110.165 19.4566 107.364 22.3273 104.631 25.198C105.874 25.2392 107.117 25.2873 108.359 25.3354C109.87 25.4041 111.25 26.0428 112.26 27.1485C113.228 28.213 113.715 29.5797 113.647 31.0013L113.372 36.3719C113.221 39.2564 110.797 41.5983 107.913 41.5159C107.755 41.5159 92.0928 41.042 84.3406 41.0695H84.32C81.3468 41.0695 78.8886 38.6658 78.8543 35.7126L78.7925 31.0494C78.7787 29.7445 79.2388 28.4877 80.0971 27.4988C82.6857 24.5181 85.3499 21.5169 88.0416 18.55H84.7457C81.6558 18.55 79.1152 16.1532 79.0809 13.1931L79.0191 7.80878C79.0053 6.42836 79.5409 5.10287 80.5434 4.08644C81.6146 2.99446 83.1389 2.36949 84.7182 2.36262C92.8755 2.34202 101.15 2.49998 109.3 2.84337C110.879 2.91205 112.376 3.59882 113.406 4.72514C114.361 5.78278 114.855 7.12887 114.779 8.51617Z" fill="#65318E"/>
<path d="M142.939 10.7276L142.383 16.1531C142.218 17.7877 141.277 19.2368 139.869 20.1227C139.966 20.6035 139.979 21.0979 139.931 21.5924L139.396 27.0248C139.341 27.5331 139.224 28.0207 139.032 28.4877C140.33 29.6277 141.03 31.3378 140.851 33.0616L140.295 38.4941C140 41.2687 137.61 43.5556 134.857 43.3565C134.61 43.3359 120.142 42.1409 113.077 41.77C110.179 41.6189 107.892 39.2083 107.892 36.3513C107.892 36.2689 109.122 8.2483 109.122 8.2483C109.176 6.861 109.794 5.56986 110.845 4.60837C111.978 3.5782 113.53 3.03564 115.109 3.11805C122.642 3.51639 130.256 4.07268 137.761 4.78006C139.334 4.92428 140.79 5.69348 141.765 6.87474C142.664 7.98045 143.083 9.34714 142.939 10.7276Z" fill="#65318E"/>
<path d="M171.201 14.4294L170.356 19.8206C170.102 21.4414 169.093 22.8493 167.637 23.6528C167.706 24.1404 167.699 24.6349 167.624 25.1225L166.8 30.5206C166.724 31.0288 166.58 31.5096 166.367 31.9628C167.603 33.1716 168.214 34.916 167.946 36.6261L167.102 42.0242C166.683 44.682 164.321 46.9003 161.698 46.5981C161.238 46.5432 146.763 44.6064 139.718 43.8647C136.917 43.5763 134.809 41.2 134.809 38.4598C134.809 38.2949 137.514 10.1851 137.514 10.1851C137.645 8.80463 138.325 7.54783 139.423 6.64128C140.611 5.67292 142.19 5.21278 143.763 5.3776C151.268 6.1674 158.862 7.12202 166.326 8.22087C167.891 8.45437 169.313 9.29225 170.219 10.5284C171.064 11.6754 171.414 13.0627 171.201 14.4294Z" fill="#65318E"/>
<path d="M30.2398 42.1685C29.1137 42.2921 27.9876 41.8869 27.2186 41.0628C25.1037 38.8102 22.9614 36.5713 20.7985 34.3461C21.0251 36.1249 21.2517 37.9105 21.4783 39.6892C21.7186 41.6054 20.3384 43.3635 18.3952 43.6245C16.3559 43.8992 14.3234 44.1876 12.291 44.483C10.3477 44.7645 8.53501 43.4597 8.23975 41.5504C6.839 32.4506 5.43824 23.3576 4.03749 14.2578C3.74223 12.3486 5.18419 10.5355 7.25785 10.2333C9.42765 9.91735 11.6043 9.6083 13.7741 9.31299C15.8546 9.03141 17.736 10.3775 17.9764 12.2936C18.1068 13.3375 18.2442 14.3746 18.3746 15.4185C19.9608 13.3581 21.5606 11.3046 23.1811 9.25805C23.806 8.46825 24.7604 7.9463 25.811 7.82954C28.4408 7.53423 31.0775 7.25952 33.7074 6.99854C35.218 6.84745 36.6668 7.5617 37.3741 8.79104C38.0813 10.0204 37.9234 11.5382 36.9758 12.6439C34.0026 16.1258 31.0913 19.6353 28.2348 23.1653C32.2174 27.2585 36.1106 31.3998 39.9215 35.5754C40.821 36.5644 41.0682 37.9586 40.567 39.1879C40.0726 40.4172 38.919 41.2688 37.5869 41.3993C35.1287 41.6397 32.6774 41.8938 30.2261 42.1617L30.2398 42.1685Z" fill="#FFF200"/>
<path d="M42.9771 40.9115C41.027 41.0763 39.2967 39.6684 39.1182 37.7386C38.2667 28.5701 37.4153 19.4084 36.5638 10.2399C36.3853 8.31692 37.9234 6.59311 40.0177 6.41454C42.2012 6.22911 44.3847 6.05055 46.5682 5.89259C48.6556 5.73463 50.4547 7.1906 50.5782 9.12046C51.1962 18.3027 51.8073 27.4918 52.4253 36.6741C52.5489 38.6039 51.0726 40.2728 49.1157 40.417C47.0695 40.5681 45.0233 40.7329 42.9771 40.9046V40.9115Z" fill="#FFF200"/>
<path d="M54.499 40.053C52.5489 40.1766 50.8529 38.7275 50.7156 36.7977C50.0701 27.6154 49.4247 18.4332 48.7793 9.25095C48.6419 7.3211 50.2212 5.63849 52.3155 5.50801C56.1881 5.26077 60.0677 5.0616 63.9472 4.89677C66.735 4.78002 69.3717 5.12341 71.7612 5.90634C74.1782 6.69613 76.3068 7.87739 78.0784 9.39518C79.8705 10.9336 81.2644 12.7741 82.2326 14.8757C83.1939 16.9635 83.6882 19.2505 83.702 21.6611C83.7157 24.1472 83.2625 26.441 82.3562 28.5563C81.4498 30.6853 80.1452 32.5671 78.4835 34.1604C76.8493 35.7263 74.8992 36.99 72.6745 37.924C70.4635 38.858 68.019 39.38 65.4029 39.4899C61.7706 39.6409 58.1382 39.8332 54.5059 40.0667L54.499 40.053Z" fill="#FFF200"/>
<path d="M69.715 22.0731C69.7425 22.8423 69.6395 23.5359 69.4129 24.1128C69.1863 24.6966 68.8773 25.1911 68.4722 25.6169C68.1014 26.0083 67.6413 26.3174 67.0714 26.5509C66.4397 26.8119 65.6981 26.963 64.8673 26.9973C64.4553 27.0179 64.0433 27.0316 63.6313 27.0522C63.494 23.8381 63.3498 20.6309 63.2056 17.4167C63.6245 17.3961 64.0433 17.3824 64.4622 17.3618C65.293 17.3275 66.0415 17.4236 66.6938 17.6365C67.3049 17.8425 67.8061 18.1241 68.225 18.495C68.6507 18.8864 68.994 19.3603 69.2618 19.9441C69.5365 20.5553 69.6875 21.2215 69.715 22.0731Z" fill="#65318E"/>
<path d="M84.162 39.0299C82.2051 39.0367 80.5983 37.4915 80.5777 35.5548C80.564 34.0164 80.5434 32.478 80.5297 30.9396C80.5228 30.1017 80.818 29.2913 81.3811 28.6458C84.8624 24.6487 88.4261 20.6928 92.0653 16.7645C89.5659 16.737 87.0734 16.7301 84.574 16.737C82.5347 16.737 80.8593 15.1917 80.8387 13.2619C80.8181 11.49 80.8043 9.71124 80.7837 7.93935C80.7631 6.00263 82.4385 4.41617 84.5328 4.40931C92.6489 4.38183 100.765 4.53979 108.874 4.87632C110.969 4.9656 112.582 6.61387 112.486 8.54372C112.411 10.0821 112.335 11.6136 112.266 13.152C112.225 13.9899 111.868 14.7797 111.264 15.3909C107.474 19.1819 103.759 23.0142 100.12 26.8807C102.736 26.9494 105.345 27.0387 107.954 27.1486C109.959 27.231 111.511 28.8793 111.415 30.8091C111.333 32.581 111.243 34.3529 111.161 36.1317C111.065 38.0615 109.403 39.5518 107.446 39.4694C99.687 39.1466 91.9211 39.0024 84.162 39.0367V39.0299Z" fill="#FFF200"/>
<path d="M112.836 39.7095C110.879 39.6065 109.369 37.972 109.451 36.0421C109.863 26.8461 110.275 17.6502 110.687 8.45418C110.769 6.52433 112.534 5.02715 114.628 5.13703C122.113 5.52849 129.59 6.06418 137.054 6.7647C139.142 6.957 140.673 8.68768 140.481 10.6107C140.302 12.4032 140.123 14.1957 139.945 15.9881C139.787 17.5952 138.496 18.8245 136.903 19.0855C137.37 19.738 137.61 20.5415 137.528 21.3794C137.356 23.1719 137.185 24.9644 137.006 26.7568C136.917 27.6565 136.484 28.4463 135.846 29.0095C137.514 29.4628 138.654 31.0149 138.476 32.7318C138.297 34.5243 138.118 36.3168 137.933 38.1093C137.734 40.0323 135.997 41.4333 134.047 41.2479C126.988 40.5886 119.916 40.0735 112.836 39.7095Z" fill="#FFF200"/>
<path d="M139.416 41.784C137.466 41.5779 136.038 39.8679 136.223 37.9449C137.116 28.7832 138.002 19.6216 138.894 10.46C139.08 8.53697 140.92 7.13594 143.001 7.35571C150.464 8.13177 157.908 9.06579 165.344 10.144C167.425 10.4462 168.866 12.2524 168.571 14.1686C168.297 15.9473 168.029 17.733 167.754 19.5117C167.507 21.105 166.161 22.2726 164.547 22.4443C164.98 23.1173 165.179 23.9346 165.056 24.7656C164.788 26.5443 164.527 28.33 164.259 30.1087C164.122 31.0015 163.648 31.7639 162.982 32.2995C164.623 32.8421 165.68 34.4492 165.42 36.1524C165.145 37.9311 164.877 39.7168 164.602 41.4955C164.307 43.4048 162.494 44.7165 160.558 44.4281C153.527 43.3979 146.482 42.5188 139.43 41.784H139.416Z" fill="#FFF200"/>
<path d="M38.8298 38.4252L29.2579 39.4142C29.2579 39.4142 22.6456 32.3815 19.4252 29.0919C18.7386 29.9847 18.0519 30.8775 17.3721 31.7772L18.5806 40.7259L10.7186 41.8385L6.3927 12.5474L14.6118 11.3867L16.0812 22.2309C19.0613 18.2339 25.4539 10.0475 25.4539 10.0475L35.8085 8.96924C35.8085 8.96924 27.5757 18.852 24.266 23.0345C28.8185 27.6565 38.8298 38.4252 38.8298 38.4252Z" fill="#65318E"/>
<path d="M49.6032 37.5325L41.6931 38.1643L39.1456 8.66715L47.4128 8.00098L49.6032 37.5325Z" fill="#65318E"/>
<path d="M79.5684 15.5144C78.7375 13.7287 77.5496 12.1697 76.0459 10.8786C74.5421 9.59431 72.7363 8.59848 70.6763 7.91857C68.6233 7.24553 66.3505 6.95021 63.9335 7.05323C60.0745 7.21806 51.4434 7.72627 51.4434 7.72627L53.3248 37.2784C53.3248 37.2784 61.5234 36.7908 65.1832 36.6397C67.4903 36.5435 69.6189 36.0834 71.5278 35.273C73.4504 34.4626 75.1258 33.3706 76.5059 32.0314C77.9067 30.6716 78.9985 29.0714 79.7469 27.2652C80.5091 25.4452 80.8799 23.4741 80.8524 21.4069V21.3314C80.8249 19.2367 80.3923 17.2862 79.5684 15.5144ZM60.871 29.5727L60.0951 14.4979C61.4753 14.4292 62.8623 14.3606 64.2425 14.3056C65.4441 14.2575 66.5702 14.4018 67.5796 14.7383C68.5683 15.0679 69.4266 15.5624 70.127 16.2011C70.8205 16.833 71.3836 17.6159 71.7956 18.5293C72.2075 19.4427 72.4273 20.466 72.4547 21.5717V21.6542C72.4891 22.7736 72.3174 23.8106 71.9672 24.7172C71.6102 25.6306 71.0952 26.441 70.4497 27.1209C69.8043 27.794 69.0078 28.3297 68.0739 28.7211C67.1264 29.1126 66.0552 29.3392 64.881 29.3873C63.5421 29.4491 62.21 29.5041 60.871 29.5727Z" fill="#65318E"/>
<path d="M109.746 7.07407L109.499 12.9254C109.499 12.9254 99.0141 23.7422 94.1115 29.1403C98.7189 29.209 108.813 29.5661 108.813 29.5661L108.517 36.6605L83.2831 36.1867L83.2625 30.3422C83.2625 30.3422 93.2532 19.1271 98.3206 13.7976C93.5759 13.6946 83.1938 13.674 83.1938 13.674L83.1664 6.57959L109.746 7.07407Z" fill="#65318E"/>
<path d="M138.139 9.038L137.473 16.1874C137.473 16.1874 126.542 15.2328 121.515 14.9031L121.261 18.8315C125.553 19.1131 135.022 19.9166 135.022 19.9166L134.376 27.0591C134.376 27.0591 125.024 26.2693 120.801 25.9946L120.54 30.129C125.409 30.4449 136.045 31.3789 136.045 31.3789L135.372 38.5215L112.246 36.832L113.784 7.26611L138.139 9.038Z" fill="#65318E"/>
<path d="M166.429 12.4927L165.392 19.5871C165.392 19.5871 154.495 18.0624 149.503 17.4718L149.043 21.3865C153.321 21.8947 162.742 23.1858 162.742 23.1858L161.732 30.2871C161.732 30.2871 152.428 29.0097 148.212 28.5152L147.732 32.629C152.593 33.1991 163.174 34.6825 163.174 34.6825L162.13 41.7838L139.094 38.8925L142.17 9.44336L166.429 12.4927Z" fill="#65318E"/>
<path d="M136.601 18.8179L138.373 18.502L137.157 29.9231L135.592 29.1676L136.601 18.8179Z" fill="#FFF200"/>
<path d="M104.288 25.4384L108.943 25.6307L109.135 20.2944L104.288 25.4384Z" fill="#65318E"/>
<path d="M83.5441 18.2407L88.7626 18.3712L83.9217 23.7281L83.5441 18.2407Z" fill="#65318E"/>
<path d="M35.2592 16.7783L36.454 29.9027L29.8347 23.0417L35.2592 16.7783Z" fill="#65318E"/>
</g>
<defs>
<clipPath id="clip0_28_210">
<rect width="173" height="56" fill="white"/>
</clipPath>
</defs>
</svg>
